<?xml version="1.0" encoding="utf-8"?>
<!-- Generator: Adobe Illustrator 26.0.2, SVG Export Plug-In . SVG Version: 6.00 Build 0)  -->
<svg version="1.1" id="Layer_1" xmlns="http://www.w3.org/2000/svg" xmlns:xlink="http://www.w3.org/1999/xlink" x="0px" y="0px"
	 viewBox="0 0 902.1 351" style="enable-background:new 0 0 902.1 351;" xml:space="preserve">
<path d="M4.8,13.5c0-1.5-0.3-2.6-1-3.5S1.9,8.7,0,8.7V6.2h69.2c6.4,0,11.9,0.7,16.4,2.1c4.5,1.4,8.1,3.3,11,5.8
	c2.8,2.5,4.9,5.4,6.1,8.7c1.3,3.3,1.9,6.9,1.9,10.8c0,5.2-1.1,9.8-3.3,13.6c-2.2,3.8-6.1,6.5-11.8,7.9v0.4c5.8,1.3,10.2,4.3,13.3,9
	c3.1,4.6,4.6,10.2,4.6,16.8c0,9.8-3.1,17.4-9.3,22.7c-6.2,5.4-16.3,8-30.4,8H0v-2.4c1.9,0,3.1-0.4,3.8-1.3c0.7-0.9,1-2,1-3.5V13.5z
	 M67.8,48.5c7.6,0,12.9-1.1,15.9-3.4c2.9-2.3,4.4-5.8,4.4-10.5s-1.5-8.2-4.4-10.5c-3-2.3-8.3-3.4-15.9-3.4H21.7v27.8H67.8z
	 M72.2,97.6c6.4,0,11.3-1.5,14.6-4.4c3.3-2.9,4.9-7.2,4.9-12.9c0-5.6-1.6-9.9-4.9-12.9c-3.3-2.9-8.1-4.4-14.6-4.4H21.7v34.6H72.2z"
	/>
<path d="M251.6,104.8c0,1.5,0.3,2.6,1,3.5c0.7,0.9,1.9,1.3,3.8,1.3v2.4h-26.6v-2.4c1.9,0,3.1-0.4,3.8-1.3c0.7-0.9,1-2,1-3.5V13.5
	c0-1.5-0.3-2.6-1-3.5c-0.7-0.9-1.9-1.3-3.8-1.3V6.2h67.4c13.3,0,22.8,2.5,28.6,7.5c5.8,5,8.7,12.3,8.7,21.8c0,8.4-2.2,15.1-6.6,20.1
	c-4.4,5-11.7,8.1-21.7,9.5l25.3,39.2c1.5,2.1,2.6,3.6,3.5,4.2c0.9,0.7,2.3,1,4.3,1v2.4h-29v-2.4c1.7,0,2.8-0.1,3.3-0.4
	c0.5-0.3,0.7-0.7,0.7-1.4c0-0.8-0.3-1.5-1-2.2l-24.7-39.4h-37V104.8z M295.7,52.5c8.2,0,13.9-1.5,17.3-4.6c3.4-3.1,5-7.3,5-12.7
	c0-2.7-0.3-5-1-6.8c-0.7-1.9-1.9-3.5-3.6-4.7c-1.7-1.3-4.1-2.2-7.1-2.8c-3-0.6-6.9-0.9-11.6-0.9h-43v32.6H295.7z"/>
<path d="M454.9,109.6c1.9,0,3.1-0.4,3.8-1.3c0.7-0.9,1-2,1-3.5V13.5c0-1.5-0.3-2.6-1-3.5c-0.7-0.9-1.9-1.3-3.8-1.3V6.2h26.5v2.4
	c-1.9,0-3.1,0.4-3.8,1.3s-1,2-1,3.5v91.3c0,1.5,0.3,2.6,1,3.5c0.7,0.9,1.9,1.3,3.8,1.3v2.4h-26.5V109.6z"/>
<path d="M634.4,108.6c1.9,0,3.1-0.4,3.8-1.3c0.7-0.9,1-2,1-3.5V18.5h-33.8c-2.5,0-4.4,0.4-5.4,1.1c-1.1,0.7-1.6,2.1-1.6,4.1h-2.4V0
	h2.4c0,3.5,2.3,5.2,7,5.2h84.5c4.7,0,7-1.7,7-5.2h2.4v23.7h-2.4c0-2-0.5-3.4-1.6-4.1c-1.1-0.7-2.9-1.1-5.4-1.1h-33.8v85.3
	c0,1.5,0.3,2.6,1,3.5c0.7,0.9,1.9,1.3,3.8,1.3v2.4h-26.5V108.6z"/>
<path d="M837.1,108.6c1.9,0,3.1-0.4,3.8-1.3c0.7-0.9,1-2,1-3.5V18.5h-33.8c-2.5,0-4.4,0.4-5.4,1.1c-1.1,0.7-1.6,2.1-1.6,4.1h-2.4V0
	h2.4c0,3.5,2.3,5.2,7,5.2h84.5c4.7,0,7-1.7,7-5.2h2.4v23.7h-2.4c0-2-0.5-3.4-1.6-4.1c-1.1-0.7-2.9-1.1-5.4-1.1h-33.8v85.3
	c0,1.5,0.3,2.6,1,3.5c0.7,0.9,1.9,1.3,3.8,1.3v2.4h-26.5V108.6z"/>
<path d="M4.8,248.7c0-1.5-0.3-2.6-1-3.5c-0.7-0.9-1.9-1.3-3.8-1.3v-2.4h69.2c6.4,0,11.9,0.7,16.4,2.1c4.5,1.4,8.1,3.3,11,5.8
	c2.8,2.5,4.9,5.4,6.1,8.7c1.3,3.3,1.9,6.9,1.9,10.8c0,5.2-1.1,9.8-3.3,13.6c-2.2,3.8-6.1,6.5-11.8,7.9v0.4c5.8,1.3,10.2,4.3,13.3,9
	c3.1,4.6,4.6,10.2,4.6,16.8c0,9.8-3.1,17.4-9.3,22.7c-6.2,5.4-16.3,8-30.4,8H0v-2.4c1.9,0,3.1-0.4,3.8-1.3s1-2,1-3.5V248.7z
	 M67.8,283.7c7.6,0,12.9-1.1,15.9-3.4c2.9-2.3,4.4-5.8,4.4-10.5c0-4.7-1.5-8.2-4.4-10.5c-3-2.3-8.3-3.4-15.9-3.4H21.7v27.8H67.8z
	 M72.2,332.7c6.4,0,11.3-1.5,14.6-4.4s4.9-7.2,4.9-12.9c0-5.6-1.6-9.9-4.9-12.9s-8.1-4.4-14.6-4.4H21.7v34.6H72.2z"/>
<path d="M284.6,340c0,1.5,0.3,2.6,1,3.5c0.7,0.9,1.9,1.3,3.8,1.3v2.4h-26.6v-2.4c1.9,0,3.1-0.4,3.8-1.3s1-2,1-3.5v-91.3
	c0-1.5-0.3-2.6-1-3.5c-0.7-0.9-1.9-1.3-3.8-1.3v-2.4h67.4c13.3,0,22.8,2.5,28.6,7.5c5.8,5,8.7,12.3,8.7,21.8
	c0,8.4-2.2,15.1-6.6,20.1c-4.4,5-11.7,8.1-21.7,9.5l25.3,39.2c1.5,2.1,2.6,3.6,3.5,4.2c0.9,0.7,2.3,1,4.3,1v2.4h-29v-2.4
	c1.7,0,2.8-0.1,3.3-0.4c0.5-0.3,0.7-0.7,0.7-1.4c0-0.8-0.3-1.5-1-2.2l-24.7-39.4h-37V340z M328.7,287.7c8.2,0,13.9-1.5,17.3-4.6
	c3.4-3.1,5-7.3,5-12.7c0-2.7-0.3-5-1-6.8c-0.7-1.9-1.9-3.5-3.6-4.7c-1.7-1.3-4.1-2.2-7.1-2.8c-3-0.6-6.9-0.9-11.6-0.9h-43v32.6
	H328.7z"/>
<path d="M510.2,248.6c0-1.5-0.3-2.6-1-3.5c-0.7-0.9-1.9-1.3-3.8-1.3v-2.4h84.3c3.5,0,5.7-0.3,6.6-0.9c0.9-0.6,1.4-1.6,1.4-3.1h2.4
	v22.9h-2.4c0-1.7-0.5-3.1-1.6-4.1c-1.1-1-3.2-1.5-6.2-1.5h-62.8v31.8h40.8c2.4,0,4.4-0.4,5.9-1.2c1.5-0.8,2.3-2.3,2.3-4.4h2.4v24.3
	h-2.4c0-2-0.6-3.4-1.8-4.2c-1.2-0.8-3.2-1.2-6-1.2h-41.2v34.2h67.2c2.8,0,4.9-0.5,6.2-1.5c1.3-1,2-2.8,2-5.3h2.4V351h-2.4
	c0-2.5-2.3-3.8-7-3.8h-90.1v-2.4c1.9,0,3.1-0.4,3.8-1.3c0.7-0.9,1-2,1-3.5V248.6z"/>
<path d="M746.4,344.8c1.9,0,3-0.2,3.4-0.5c0.4-0.3,0.6-0.9,0.6-1.7c0-0.9-0.2-2-0.6-3.1c-0.4-1.1-0.7-2.2-1-3.1l-32.2-85.7
	c-0.8-2.3-1.7-4-2.6-5.1c-0.9-1.1-2.3-1.7-4.2-1.7v-2.4h26.4v2.4c-1.7,0-2.9,0.3-3.5,0.8c-0.6,0.5-0.9,1.3-0.9,2.2
	c0,0.8,0.2,1.7,0.7,2.7c0.5,1,1,2.2,1.5,3.5l27.2,72.8h0.4l27-76.6c0.4-1.2,0.6-2.2,0.6-3c0-1.6-1-2.4-3-2.4v-2.4h28v2.4
	c-2.4,0-3.6,0.9-3.6,2.6c0,0.7,0.2,1.5,0.6,2.5c0.4,1,0.8,2,1.2,3.1l26.1,71.4h0.4l26.8-72.4c0.3-0.9,0.5-1.7,0.8-2.3
	c0.3-0.6,0.4-1.3,0.4-2.1c0-1.9-1.5-2.8-4.4-2.8v-2.4h25.3v2.4c-1.7,0-3,0.5-3.8,1.4c-0.8,0.9-1.7,2.7-2.8,5.4L849.4,336
	c-0.7,1.7-1.2,3.1-1.6,4c-0.4,0.9-0.6,1.9-0.6,3c0,1.2,1.3,1.8,4,1.8v2.4h-26.5v-2.4c1.7,0,2.8-0.2,3.3-0.5c0.5-0.3,0.7-0.8,0.7-1.5
	c0-0.9-0.3-2-0.8-3.3c-0.5-1.3-1-2.4-1.4-3.5l-27-73.2h-0.4l-27,75.2c-0.3,0.8-0.5,1.6-0.8,2.3c-0.3,0.7-0.4,1.6-0.4,2.5
	c0,1.3,1.3,2,4,2v2.4h-28.6V344.8z"/>
</svg>
